<?xml version="1.0" encoding="iso-8859-1"?>
<!-- Generator: Adobe Illustrator 19.0.0, SVG Export Plug-In . SVG Version: 6.00 Build 0)  -->
<svg version="1.1" id="Capa_1" xmlns="http://www.w3.org/2000/svg" xmlns:xlink="http://www.w3.org/1999/xlink" x="0px" y="0px"
	 viewBox="0 0 502.779 502.779" style="enable-background:new 0 0 502.779 502.779;" xml:space="preserve">
<g transform="matrix(1.25 0 0 -1.25 0 45)">
	<path style="fill:#3B88C3;" d="M87.534-54.189c-81.5-81.5-115.8-218.3-60.6-282.4c64.1-55.3,200.8-20.9,282.4,60.6
		s127.8,194.4,60.6,282.4C305.834,61.611,169.034,27.311,87.534-54.189z"/>
	<g>
		<path style="fill:#CCD6DD;" d="M398.934-56.489c-16.6-61.3-116.3-210-275.4-268.9c-13.3-5.7-12.3-22.7,9.5-24.6
			c8-0.7,30.7-0.6,58.5,1c42.7,14.7,84.8,40,117.8,73C372.434-212.889,414.334-130.989,398.934-56.489z"/>
		<path style="fill:#E1E8ED;" d="M372.934,2.211c-1,1.4-2,2.8-3.1,4.1c-4.4,3.8-9.1,7.1-14.1,10.1c-32.8,16.2-111.2,26.6-225.6-67.7
			c-86.3-71.1-99.9-161.5-93.9-215.2c2.4-20.7,27.5-15.8,49.4-10.5C174.634-255.189,388.634-158.689,372.934,2.211z"/>
	</g>
</g>
<g>
</g>
<g>
</g>
<g>
</g>
<g>
</g>
<g>
</g>
<g>
</g>
<g>
</g>
<g>
</g>
<g>
</g>
<g>
</g>
<g>
</g>
<g>
</g>
<g>
</g>
<g>
</g>
<g>
</g>
</svg>
