<?xml version="1.0" encoding="UTF-8" standalone="no"?>
<!-- Generator: Adobe Illustrator 19.0.0, SVG Export Plug-In . SVG Version: 6.00 Build 0)  -->

<svg
   xmlns:osb="http://www.openswatchbook.org/uri/2009/osb"
   xmlns:dc="http://purl.org/dc/elements/1.1/"
   xmlns:cc="http://creativecommons.org/ns#"
   xmlns:rdf="http://www.w3.org/1999/02/22-rdf-syntax-ns#"
   xmlns:svg="http://www.w3.org/2000/svg"
   xmlns="http://www.w3.org/2000/svg"
   xmlns:sodipodi="http://sodipodi.sourceforge.net/DTD/sodipodi-0.dtd"
   xmlns:inkscape="http://www.inkscape.org/namespaces/inkscape"
   version="1.1"
   id="Capa_1"
   x="0px"
   y="0px"
   viewBox="0 0 502.779 502.779"
   style="enable-background:new 0 0 502.779 502.779;"
   xml:space="preserve"
   sodipodi:docname="utsa-rugby-ball.svg"
   inkscape:version="0.92.4 (5da689c313, 2019-01-14)"
   inkscape:export-filename="C:\work\josiah\mensrugby-utsa\src\img\favicon-16x16.png"
   inkscape:export-xdpi="3.0599999"
   inkscape:export-ydpi="3.0599999"><metadata
   id="metadata47"><rdf:RDF><cc:Work
       rdf:about=""><dc:format>image/svg+xml</dc:format><dc:type
         rdf:resource="http://purl.org/dc/dcmitype/StillImage" /><dc:title></dc:title></cc:Work></rdf:RDF></metadata><defs
   id="defs45"><linearGradient
   id="UTSA_Blue"><stop
     id="stop4581"
     offset="0"
     style="stop-color:#e1e8ed;stop-opacity:1;" /></linearGradient><linearGradient
   id="UTSA_Blue-8"
   osb:paint="solid"><stop
     style="stop-color:#00084d;stop-opacity:1;"
     offset="0"
     id="stop4575" /></linearGradient>
	
	

		
		
	</defs><sodipodi:namedview
   pagecolor="#ffffff"
   bordercolor="#666666"
   borderopacity="1"
   objecttolerance="10"
   gridtolerance="10"
   guidetolerance="10"
   inkscape:pageopacity="0"
   inkscape:pageshadow="2"
   inkscape:window-width="1920"
   inkscape:window-height="1017"
   id="namedview43"
   showgrid="false"
   inkscape:zoom="0.93878226"
   inkscape:cx="93.348724"
   inkscape:cy="130.31842"
   inkscape:window-x="-8"
   inkscape:window-y="-8"
   inkscape:window-maximized="1"
   inkscape:current-layer="Capa_1" />
<path
   inkscape:connector-curvature="0"
   id="path2"
   d="m 109.4175,112.73625 c -101.875,101.875 -144.75,272.875 -75.75,353 80.125,69.125 251,26.125 353,-75.75 102,-101.875 159.75,-243 75.75,-353 -80.125,-69 -251.125,-26.125 -353,75.75 z"
   style="fill:#0c2340;stroke-width:1.25;fill-opacity:1" /><path
   style="fill:#f15a22;stroke-width:1.25;fill-opacity:1"
   d="m 498.6675,115.61125 c -20.75,76.625 -145.375,262.5 -344.25,336.125 -16.625,7.125 -15.375,28.375 11.875,30.75 10,0.875 38.375,0.75 73.125,-1.25 53.375,-18.375 106,-50 147.25,-91.25 78.875,-78.875 131.25,-181.25 112,-274.375 z"
   id="path4"
   inkscape:connector-curvature="0" /><path
   style="fill:#f15a22;stroke-width:1.25;fill-opacity:1"
   d="m 466.1675,42.23625 c -1.25,-1.75 -2.5,-3.5 -3.875,-5.125 -5.5,-4.75 -11.375,-8.875 -17.625,-12.625 -41,-20.25 -139,-33.25 -282,84.625 -107.875,88.875 -124.875,201.875 -117.375,269 3,25.875 34.375,19.75 61.75,13.125 111.25,-27.25 378.75,-147.875 359.125,-349 z"
   id="path6"
   inkscape:connector-curvature="0" />
<g
   id="g12">
</g>
<g
   id="g14">
</g>
<g
   id="g16">
</g>
<g
   id="g18">
</g>
<g
   id="g20">
</g>
<g
   id="g22">
</g>
<g
   id="g24">
</g>
<g
   id="g26">
</g>
<g
   id="g28">
</g>
<g
   id="g30">
</g>
<g
   id="g32">
</g>
<g
   id="g34">
</g>
<g
   id="g36">
</g>
<g
   id="g38">
</g>
<g
   id="g40">
</g>
</svg>